<svg width="21" height="19" viewBox="0 0 21 19" fill="none" xmlns="http://www.w3.org/2000/svg">
  <path d="M10.5 4.25C13.13 4.25 15.27 6.39 15.27 9.02C15.27 11.65 13.13 13.79 10.5 13.79C7.87 13.79 5.73 11.65 5.73 9.02C5.73 6.39 7.87 4.25 10.5 4.25ZM10.5 6.16C9.11 6.16 7.99 7.28 7.99 8.67C7.99 10.07 9.11 11.19 10.5 11.19C11.89 11.19 13.01 10.07 13.01 8.67C13.01 7.28 11.89 6.16 10.5 6.16Z" fill="black"/>
  <path d="M10.5 1.87C15.27 1.87 19.34 4.83 21 9.02C19.34 13.21 15.27 16.18 10.5 16.18C5.72 16.18 1.65 13.21 0 9.02C1.65 4.83 5.72 1.87 10.5 1.87ZM10.5 14.29C13.93 14.29 16.83 12.26 18.3 9.02C16.83 5.78 13.93 3.75 10.5 3.75C7.07 3.75 4.17 5.78 2.7 9.02C4.17 12.26 7.07 14.29 10.5 14.29Z" fill="black"/>
</svg>
